<svg width="186" height="63" viewBox="0 0 186 63" fill="none" xmlns="http://www.w3.org/2000/svg">
<path d="M16.1707 49.6161H20.1933C20.3684 49.6161 20.5103 49.4741 20.5103 49.299V41.2137C20.5103 41.0386 20.6523 40.8967 20.8274 40.8967H31.6079C41.12 40.8967 42.7053 32.1773 42.7053 28.2139C42.7053 24.2505 41.12 15.5311 31.6079 15.5311H18.2315C16.9182 15.5311 15.8535 16.5958 15.8535 17.9092L15.8536 49.299C15.8536 49.4741 15.9956 49.6161 16.1707 49.6161Z" fill="#2A2A2A"/>
<path d="M20.5098 36.1406V20.2871H31.6072C37.1559 21.0798 37.9486 25.8358 37.9486 29.0065C37.9486 32.9699 35.5705 35.3479 31.6072 36.1406H20.5098Z" fill="white"/>
<path d="M18.2307 51.9941V59.1123C18.2307 59.121 18.2378 59.1281 18.2466 59.1281H55.4705C55.4792 59.1281 55.4863 59.121 55.4863 59.1123V4.44957C55.4863 4.44081 55.4792 4.43372 55.4705 4.43372H3.18578C3.17702 4.43372 3.16992 4.44081 3.16992 4.44957V59.1123C3.16992 59.121 3.17702 59.1281 3.18578 59.1281H10.304" stroke="#2A2A2A" stroke-width="4.75604"/>
<path d="M64.7371 19.5946V14.7196H69.7561V19.5946H64.7371ZM64.7371 49.781V23.8452H69.7561V49.781H64.7371ZM98.0526 49.781V37.0292C98.0526 36.0206 97.9645 34.988 97.7884 33.9313C97.6283 32.8587 97.3081 31.8661 96.8278 30.9535C96.3635 30.0409 95.6991 29.3045 94.8346 28.7441C93.9861 28.1838 92.8734 27.9036 91.4965 27.9036C90.6 27.9036 89.7515 28.0557 88.951 28.3599C88.1505 28.6481 87.4461 29.1204 86.8377 29.7768C86.2453 30.4332 85.773 31.2977 85.4208 32.3704C85.0846 33.443 84.9165 34.7478 84.9165 36.2848L81.7946 35.108C81.7946 32.7546 82.2349 30.6813 83.1154 28.8882C83.996 27.0791 85.2607 25.6703 86.9097 24.6617C88.5587 23.653 90.552 23.1487 92.8894 23.1487C94.6825 23.1487 96.1874 23.4369 97.4042 24.0133C98.6209 24.5896 99.6055 25.3501 100.358 26.2947C101.126 27.2232 101.711 28.2398 102.111 29.3445C102.511 30.4492 102.783 31.5299 102.928 32.5865C103.072 33.6431 103.144 34.5717 103.144 35.3722V49.781H98.0526ZM79.8254 49.781V23.8452H84.3162V31.3377H84.9165V49.781H79.8254ZM127.122 49.781C125.489 50.1012 123.888 50.2373 122.319 50.1893C120.75 50.1412 119.349 49.837 118.116 49.2767C116.883 48.7164 115.955 47.8358 115.33 46.6351C114.77 45.5624 114.466 44.4738 114.418 43.3691C114.386 42.2484 114.37 40.9836 114.37 39.5748V16.6407H119.413V39.3346C119.413 40.3753 119.421 41.2798 119.437 42.0483C119.469 42.8167 119.637 43.4651 119.941 43.9935C120.518 44.9861 121.43 45.5544 122.679 45.6985C123.944 45.8266 125.425 45.7706 127.122 45.5304V49.781ZM109.399 27.8796V23.8452H127.122V27.8796H109.399Z" fill="#2A2A2A"/>
<path d="M138.834 49.781L150.072 15.1999H157.301L168.54 49.781H163.329L152.978 18.2257H154.275L144.045 49.781H138.834ZM144.669 41.9762V37.2694H162.728V41.9762H144.669ZM176.21 49.781V15.1999H181.229V49.781H176.21Z" fill="url(#paint0_linear_3651_299)"/>
<defs>
<linearGradient id="paint0_linear_3651_299" x1="145.708" y1="31.781" x2="185.486" y2="31.781" gradientUnits="userSpaceOnUse">
<stop stop-color="#2C8AEE"/>
<stop offset="1" stop-color="#AA8BFA"/>
</linearGradient>
</defs>
</svg>
